<?xml version="1.0" standalone="no"?>
<!DOCTYPE svg PUBLIC "-//W3C//DTD SVG 20010904//EN"
 "http://www.w3.org/TR/2001/REC-SVG-20010904/DTD/svg10.dtd">
<svg version="1.0" xmlns="http://www.w3.org/2000/svg"
 width="500.000000pt" height="500.000000pt" viewBox="0 0 500.000000 500.000000"
 preserveAspectRatio="xMidYMid meet">

<g transform="translate(0.000000,500.000000) scale(0.100000,-0.100000)"
fill="#fff" stroke="none">
<path d="M0 2500 l0 -2500 2500 0 2500 0 0 2500 0 2500 -2500 0 -2500 0 0
-2500z m2518 198 l2 -1298 -40 0 -40 0 0 1301 0 1300 38 -3 37 -3 3 -1297z
m-168 907 c0 -188 11 -168 -102 -179 -72 -8 -153 -38 -208 -77 -72 -52 -109
-167 -79 -246 30 -79 149 -144 309 -168 87 -13 80 4 80 -191 l0 -174 -22 5
c-13 2 -68 12 -123 21 -124 20 -303 79 -380 124 -122 73 -206 188 -235 321
-19 85 -9 260 19 331 81 209 325 359 631 387 47 5 91 9 98 10 9 1 12 -38 12
-164z m1160 -910 l0 -1065 -195 0 -195 0 0 430 0 430 -270 0 -270 0 0 185 0
185 270 0 270 0 0 450 0 450 195 0 195 0 0 -1065z m-1686 -446 c10 -22 43 -67
73 -100 89 -96 204 -144 416 -175 l37 -5 0 -167 0 -167 -77 3 c-366 15 -619
157 -753 420 -18 35 -28 67 -24 72 10 9 297 160 304 160 3 0 13 -19 24 -41z
m-223 -945 c11 -10 19 -23 19 -31 0 -18 -46 -17 -54 2 -3 9 -19 15 -41 15 -32
0 -36 -3 -33 -22 2 -18 15 -27 57 -40 69 -22 81 -33 81 -74 0 -49 -29 -74 -86
-74 -62 0 -113 30 -114 68 0 20 48 14 60 -9 9 -16 19 -19 48 -17 32 3 37 6 37
28 0 21 -7 26 -50 38 -27 8 -58 21 -67 30 -22 18 -24 75 -4 91 39 32 109 30
147 -5z m605 15 c3 -6 -1 -18 -10 -27 -15 -15 -17 -15 -32 0 -19 19 -11 38 16
38 10 0 22 -5 26 -11z m494 -39 l0 -50 55 0 55 0 0 50 c0 47 2 50 25 50 l25 0
0 -125 0 -125 -25 0 c-23 0 -25 3 -25 50 l0 50 -55 0 -55 0 0 -50 c0 -43 -3
-50 -20 -50 -19 0 -20 7 -20 125 0 118 1 125 20 125 17 0 20 -7 20 -50z m570
-75 l0 -125 -25 0 c-14 0 -25 5 -25 12 0 9 -3 9 -12 0 -22 -22 -75 -14 -97 14
-56 72 8 190 84 156 24 -11 25 -10 25 28 0 36 3 40 25 40 l25 0 0 -125z m80
105 c0 -21 -33 -29 -45 -10 -9 15 4 30 26 30 12 0 19 -7 19 -20z m210 -105 c0
-118 -1 -125 -20 -125 -11 0 -20 5 -20 12 0 9 -3 9 -12 0 -15 -15 -62 -16 -88
-2 -49 26 -45 133 6 167 23 15 37 14 77 -2 14 -6 17 -1 17 34 0 34 3 41 20 41
19 0 20 -7 20 -125z m-1753 38 c8 -10 13 -47 13 -90 0 -66 -2 -73 -20 -73 -11
0 -20 5 -20 12 0 9 -3 9 -12 0 -17 -17 -74 -15 -92 4 -20 20 -20 48 -1 68 15
15 25 19 77 30 19 4 26 11 22 21 -8 19 -50 19 -58 0 -7 -19 -46 -20 -46 -1 0
8 12 24 27 36 33 25 90 22 110 -7z m185 13 c12 -11 17 -11 33 0 26 19 52 17
75 -6 16 -16 20 -33 20 -95 0 -68 -2 -75 -20 -75 -17 0 -20 7 -20 49 0 60 -14
101 -35 101 -21 0 -35 -41 -35 -101 0 -42 -3 -49 -20 -49 -18 0 -20 7 -20 63
0 70 -9 91 -36 85 -16 -3 -19 -14 -22 -76 -3 -69 -4 -72 -27 -72 -25 0 -25 1
-25 90 l0 91 35 -3 c19 -1 37 1 41 5 12 12 42 8 56 -7z m353 -12 c0 -11 -8
-20 -20 -23 -29 -5 -35 -19 -35 -83 0 -55 -1 -58 -25 -58 -25 0 -25 1 -25 90
l0 91 35 -3 c19 -1 38 1 42 5 12 12 28 1 28 -19z m164 1 c11 -10 17 -40 19
-90 l4 -75 -26 0 c-14 0 -26 5 -26 11 0 8 -4 8 -14 0 -26 -22 -79 -9 -96 22
-14 27 -14 29 13 53 15 13 38 24 50 24 29 0 51 15 43 29 -10 16 -41 14 -56 -4
-7 -8 -18 -15 -26 -15 -25 0 -25 20 1 46 22 22 33 25 63 21 19 -4 43 -13 51
-22z m530 0 c8 -8 16 -43 19 -89 l5 -76 -27 0 c-14 0 -26 5 -26 12 0 9 -3 9
-12 0 -22 -22 -76 -15 -94 13 -15 23 -15 27 -1 49 10 14 33 28 61 35 25 6 46
16 46 21 0 17 -31 24 -51 12 -10 -7 -28 -12 -39 -12 -18 0 -19 3 -10 21 21 39
96 48 129 14z m-839 -75 c0 -83 -1 -90 -20 -90 -19 0 -20 7 -20 90 0 83 1 90
20 90 19 0 20 -7 20 -90z m1150 0 c0 -83 -1 -90 -20 -90 -19 0 -20 7 -20 90 0
83 1 90 20 90 19 0 20 -7 20 -90z"/>
<path d="M3144 1204 c-27 -40 -9 -79 35 -79 29 0 36 5 44 28 7 21 5 34 -7 52
-21 32 -51 32 -72 -1z"/>
<path d="M3440 1210 c-16 -30 -8 -70 15 -86 46 -31 90 50 49 90 -22 22 -51 20
-64 -4z"/>
<path d="M1721 1151 c-17 -11 -7 -41 13 -41 16 0 46 26 46 41 0 11 -40 12 -59
0z"/>
<path d="M2423 1153 c-17 -6 -16 -32 1 -39 19 -7 56 13 56 31 0 15 -31 19 -57
8z"/>
<path d="M2953 1153 c-17 -6 -16 -32 1 -39 19 -7 56 13 56 31 0 15 -31 19 -57
8z"/>
</g>
</svg>
